<?xml version="1.0" encoding="UTF-8"?>
<svg width="120" height="120" viewBox="0 0 120 120" xmlns="http://www.w3.org/2000/svg" fill="none">
  <defs>
    <linearGradient id="g1" x1="0" x2="1" y1="0" y2="1">
      <stop offset="0" stop-color="#6b8bff"/>
      <stop offset="1" stop-color="#3ad29f"/>
    </linearGradient>
  </defs>
  <rect width="120" height="120" rx="18" fill="url(#g1)" />
  <g transform="translate(18 18)" fill="#fff">
    <path d="M40 6c-10 2-24 10-30 20 6 12 18 20 30 24 8-4 16-10 20-20-8-10-18-18-20-24z" opacity="0.95"/>
    <path d="M52 44c-8 6-20 10-32 8 8 6 20 8 32 6 6-2 12-6 16-10-6 0-12-4-16-4z" opacity="0.9"/>
  </g>
  <text x="60" y="106" font-family="Inter, Arial, sans-serif" font-size="12" fill="#0f1724" text-anchor="middle">Leafnote</text>
</svg>
